<?xml version="1.0" encoding="UTF-8"?>
<svg id="Layer_1" xmlns="http://www.w3.org/2000/svg" version="1.1" viewBox="0 0 150 37.66">
  <!-- Generator: Adobe Illustrator 30.6.0, SVG Export Plug-In . SVG Version: 2.1.4 Build 109)  -->
  <defs>
    <style>
      .st0 {
        fill: #fff;
      }
    </style>
  </defs>
  <g>
    <polygon class="st0" points="64.6 27.15 61.55 27.15 58.52 22.49 45.69 22.49 42.66 27.15 39.61 27.15 44.35 20.05 56.94 20.05 50.75 10.51 53.48 10.51 64.6 27.15"/>
    <polygon class="st0" points="126.25 27.15 123.19 27.15 120.17 22.49 107.33 22.49 104.31 27.15 101.25 27.15 105.99 20.05 118.59 20.05 112.39 10.51 115.13 10.51 126.25 27.15"/>
    <polygon class="st0" points="105.69 10.51 95.97 19.93 95.97 27.15 93.55 27.15 93.53 19.91 83.82 10.51 87.35 10.51 94.75 17.68 102.16 10.51 105.69 10.51"/>
    <path class="st0" d="M84.24,10.51h-2.43v11.64c0,1.42-1.15,2.57-2.57,2.57h-11.26c-1.42,0-2.58-1.15-2.58-2.58v-3.63h-2.43v3.97c0,2.58,2.09,4.67,4.67,4.67h11.77c2.67,0,4.83-2.16,4.83-4.83v-11.81Z"/>
    <path class="st0" d="M131.16,22.15v-11.64h-2.43v11.81c0,2.67,2.16,4.83,4.83,4.83h16.43v-2.43h-16.26c-1.42,0-2.57-1.15-2.57-2.57Z"/>
  </g>
  <g>
    <polygon class="st0" points="0 20.04 0 37.66 5.96 33.17 5.96 15.55 0 20.04"/>
    <polygon class="st0" points="8.35 4.49 8.35 31.37 14.31 26.88 14.31 0 8.35 4.49"/>
    <polygon class="st0" points="16.35 0 16.35 26.88 22.31 31.37 22.31 4.49 16.35 0"/>
    <polygon class="st0" points="30.67 20.04 30.67 37.66 24.7 33.17 24.7 15.55 30.67 20.04"/>
  </g>
</svg>